PathFileType	4	(X/Y/Z)	..\data\2015035\dynamic\2015035_C5_03.trc
DataRate	CameraRate	NumFrames	NumMarkers	Units	OrigDataRate	OrigDataStartFrame	OrigNumFrames
100.000000	100.000000	4	52	mm	100.000000	0	161
Frame#	Time	L_IAS			L_IPS			R_IPS			R_IAS			L_FTC			L_FLE			L_FME			L_FAX			L_TTC			L_FAL			L_TAM			L_FCC			L_FM1			L_FM2			L_FM5			R_FTC			R_FLE			R_FME			R_FAX			R_TTC			R_FAL			R_TAM			R_FCC			R_FM1			R_FM2			R_FM5			CV7			TV10			SXS			SJN			L_SIA			L_SRS			L_SAA			L_SAE			L_HLE			L_HME			L_UOA			L_RSP			L_UHE			L_HM2			L_HM5			R_SIA			R_SRS			R_SAA			R_SAE			R_HLE			R_HME			R_UOA			R_RSP			R_UHE			R_HM2			R_HM5			
		X1	Y1	Z1	X2	Y2	Z2	X3	Y3	Z3	X4	Y4	Z4	X5	Y5	Z5	X6	Y6	Z6	X7	Y7	Z7	X8	Y8	Z8	X9	Y9	Z9	X10	Y10	Z10	X11	Y11	Z11	X12	Y12	Z12	X13	Y13	Z13	X14	Y14	Z14	X15	Y15	Z15	X16	Y16	Z16	X17	Y17	Z17	X18	Y18	Z18	X19	Y19	Z19	X20	Y20	Z20	X21	Y21	Z21	X22	Y22	Z22	X23	Y23	Z23	X24	Y24	Z24	X25	Y25	Z25	X26	Y26	Z26	X27	Y27	Z27	X28	Y28	Z28	X29	Y29	Z29	X30	Y30	Z30	X31	Y31	Z31	X32	Y32	Z32	X33	Y33	Z33	X34	Y34	Z34	X35	Y35	Z35	X36	Y36	Z36	X37	Y37	Z37	X38	Y38	Z38	X39	Y39	Z39	X40	Y40	Z40	X41	Y41	Z41	X42	Y42	Z42	X43	Y43	Z43	X44	Y44	Z44	X45	Y45	Z45	X46	Y46	Z46	X47	Y47	Z47	X48	Y48	Z48	X49	Y49	Z49	X50	Y50	Z50	X51	Y51	Z51	X52	Y52	Z52	

1	0	-1310.938354492188	943.872741699219	88.38880157470689	-1498.204833984375	969.554870605469	201.2637786865233	-1490.805297851563	951.3459472656252	283.2550354003905	-1305.594970703125	935.8364868164065	357.3326110839843	-1421.262451171875	888.2408447265627	45.64632034301741	-1540.00634765625	473.293670654297	60.19195938110334	-1545.83251953125	483.9023437500001	202.3926391601561	-1568.977905273438	430.3200988769532	60.08554458618146	-1518.091064453125	382.0467529296876	115.231719970703	-1715.710571289063	94.21326446533205	94.59138488769511	-1688.6328125	103.6368103027344	189.5000762939451	-1772.039428710938	70.32128143310548	145.0346679687498	-1579.177124023438	20.09640312194825	172.9508972167967	-1560.206665039063	32.05121994018555	116.174606323242	-1623.046020507813	21.17318153381348	66.64745330810528	-1368.835083007813	842.8792724609377	414.1866149902343	-1173.616455078125	467.541717529297	368.9840087890624	-1178.102294921875	470.7833557128907	243.6698303222655	-1179.740112304688	418.5504150390626	368.8157348632811	-1109.787841796875	425.9555664062501	321.7807617187499	-1058.617919921875	72.36837005615236	348.8342895507812	-1023.051025390625	110.9048004150391	266.9415283203124	-1065.820190429688	22.74181938171387	296.6360168457031	-891.4004516601565	97.86396789550784	285.3672790527343	-894.7122802734377	119.8523025512696	334.0409240722656	-936.4446411132815	73.12905883789064	381.2216796874999	-1455.610717773438	1469.935668945313	216.8583831787108	-1516.25048828125	1180.28369140625	227.3222808837889	-1266.584716796875	1210.126708984375	222.542251586914	-1319.198486328125	1379.37841796875	223.7816314697264	-1513.977905273438	1256.916015625	98.29296874999984	-1491.082641601563	1402.359741210938	121.2396163940428	-1411.383178710938	1399.313232421875	28.53245925903304	-1362.24072265625	1405.65771484375	27.29542922973617	-1275.599731445313	1124.245239257813	-86.24435424804705	-1310.72509765625	1079.246948242188	-7.481670379638834	-1290.939208984375	1061.908203125	-63.24437332153337	-1029.056884765625	1097.124633789063	24.05932807922352	-1031.464721679688	1044.032836914063	-32.42812347412123	-944.5910644531252	1100.621948242188	36.11210632324208	-960.4968261718752	1009.157409667969	-12.98758029937756	-1536.8798828125	1254.900146484375	336.8307189941405	-1494.772216796875	1401.536743164063	313.7174377441405	-1431.616333007813	1389.56787109375	414.8124999999999	-1381.636962890625	1383.251953125	429.7669067382812	-1463.916137695313	1091.855590820313	505.8830871582031	-1491.884887695313	1093.981201171875	462.6864318847656	-1519.2998046875	1079.130737304688	484.1073608398437	-1425.605346679688	821.4863891601565	464.7967224121093	-1479.160766601563	829.1553344726565	523.0030517578124	-1426.750854492188	728.4736938476564	467.4808349609374	-1501.923706054688	766.4171752929689	531.1023559570311	
2	0.01	-1295.723022460938	942.4384765625002	89.25344848632798	-1482.731689453125	968.0152587890627	202.8148040771483	-1474.97265625	949.8320922851565	284.7801513671874	-1289.595581054688	934.3885498046877	358.1958618164061	-1406.34228515625	886.7451171875002	46.82257080078109	-1527.086303710938	472.6950988769532	60.74998474121077	-1532.781494140625	483.3264465332032	202.7738952636717	-1556.871704101563	430.2123413085939	60.46387863159162	-1507.033935546875	380.7982788085938	115.6237564086912	-1713.115356445313	98.11357879638675	93.55259704589824	-1686.52734375	106.9475936889649	188.5999450683592	-1770.499633789063	75.92935180664064	143.7478027343748	-1579.1533203125	19.76742362976075	172.9296874999998	-1560.112548828125	32.06908416748048	116.4360046386717	-1622.399780273438	21.586181640625	66.4845657348631	-1352.203002929688	841.782409667969	415.5005493164062	-1157.652954101563	466.1310424804689	369.1127929687499	-1163.266723632813	469.2931213378907	243.7911071777343	-1163.704345703125	417.0293884277345	369.0946044921874	-1094.162841796875	424.8343505859376	321.3217468261718	-1042.643432617188	71.27739715576173	348.6081237792968	-1007.736999511719	109.7358932495117	266.2890624999999	-1050.559692382813	21.91886901855469	296.6105346679687	-876.020202636719	96.60245513916018	283.6575622558593	-878.8006591796877	118.8822631835938	332.7570800781249	-920.3411254882815	71.74153137207033	379.7825622558593	-1440.0205078125	1468.399658203125	219.0448913574218	-1501.1552734375	1178.824096679688	228.8686370849608	-1250.626220703125	1208.608032226563	224.3105316162109	-1303.526977539063	1377.747802734375	225.8448486328124	-1498.498657226563	1255.591186523438	99.99079895019516	-1475.566040039063	1401.0908203125	123.3443145751952	-1395.837768554688	1398.022583007813	30.61868095397933	-1346.724731445313	1404.335083007813	29.26118278503402	-1261.856201171875	1122.7109375	-84.92211151123064	-1296.546264648438	1077.483764648438	-6.04387378692643	-1276.617065429688	1060.169555664063	-61.83583831787126	-1015.337036132813	1098.677978515625	25.80663871765125	-1016.966491699219	1045.322387695313	-30.45192146301283	-930.6638793945315	1103.72900390625	37.87918853759755	-945.4622192382815	1011.501831054688	-10.62329483032238	-1521.198974609375	1252.888793945313	338.398468017578	-1479.257080078125	1399.742797851563	315.752227783203	-1416.250732421875	1387.250610351563	416.9360656738281	-1365.857299804688	1381.031616210938	432.0332946777343	-1449.10693359375	1089.263549804688	506.4970397949218	-1474.743774414063	1090.9990234375	465.0917358398437	-1503.693359375	1076.315307617188	483.4767761230468	-1410.75390625	818.3831176757815	466.1899414062499	-1465.077758789063	826.5460205078127	523.7075195312499	-1412.052734375	725.3923339843751	469.3642272949218	-1488.089477539063	763.9287109375001	531.7610473632811	
3	0.02	-1280.041381835938	941.184020996094	90.33990478515611	-1466.976440429688	966.708190917969	204.2620697021483	-1458.904174804688	948.6402587890627	286.2494506835936	-1273.399536132813	933.3822021484377	359.2103271484374	-1390.892211914063	885.275329589844	48.00312805175766	-1513.18359375	471.9844970703126	61.32554626464827	-1518.7353515625	482.5446777343751	203.0798034667967	-1543.848388671875	430.0148925781251	60.83169174194318	-1495.041381835938	379.4191589355469	115.8828353881834	-1709.9453125	102.4918060302735	92.65919494628886	-1683.766357421875	110.6032028198242	187.6950378417967	-1768.122192382813	82.19844818115236	142.7435913085936	-1579.287963867188	19.29574584960938	172.945846557617	-1560.258056640625	32.00190734863282	116.7465057373045	-1621.788818359375	22.11747932434082	66.39218139648419	-1335.232666015625	841.1734008789065	416.9214172363281	-1141.489379882813	465.0608520507814	369.2753601074218	-1148.095947265625	468.1940917968751	244.0018005371093	-1147.703002929688	415.8621215820314	369.3907470703124	-1078.54736328125	423.6607055664064	320.8945922851562	-1029.407836914063	69.89803314208986	348.2707824707031	-994.7940063476565	107.9285049438477	265.5506591796874	-1038.529907226563	21.01600646972657	296.5321044921874	-863.2817382812502	93.4132537841797	282.0307617187499	-865.5638427734377	115.7867050170899	331.5338439941406	-907.2202148437502	68.89026641845705	378.4010620117187	-1424.306640625	1467.100219726563	221.3900299072264	-1485.835205078125	1177.600830078125	230.4523468017577	-1234.447021484375	1207.43359375	226.2293548583984	-1287.69482421875	1376.44970703125	228.0329742431639	-1482.880249023438	1254.5009765625	101.771286010742	-1459.922729492188	1400.0732421875	125.5764083862303	-1380.171630859375	1397.056274414063	32.86605453491195	-1331.094604492188	1403.323608398438	31.35718727111801	-1248.575439453125	1121.266845703125	-83.41709136962908	-1282.8515625	1075.970581054688	-4.367595195770422	-1262.945678710938	1058.584350585938	-60.2388992309572	-1002.037963867188	1099.312744140625	27.44101333618152	-1003.178344726563	1045.734619140625	-28.60890769958509	-917.0800781250002	1105.555419921875	39.45943450927724	-931.277282714844	1012.680480957031	-8.533171653747674	-1505.226196289063	1251.1064453125	340.1391296386718	-1463.546142578125	1398.177978515625	317.9536743164061	-1400.627807617188	1385.21142578125	419.2277526855468	-1349.679443359375	1379.09130859375	434.4260559082031	-1433.714599609375	1086.866455078125	507.1842956542968	-1456.950317382813	1088.256713867188	468.0160217285156	-1487.534301757813	1073.6962890625	483.1190490722656	-1395.208129882813	815.5787353515627	467.5152893066406	-1450.198364257813	824.1319580078127	524.4237060546874	-1396.625122070313	722.5587158203126	471.0507507324218	-1473.39501953125	761.6212768554689	532.4319458007811	
4	0.03	-1263.927001953125	940.0871582031252	91.66120147705064	-1450.951416015625	965.6143798828127	205.5947418212889	-1442.634887695313	947.7700195312502	287.6569519042968	-1257.037475585938	932.813903808594	360.3892211914061	-1374.915893554688	883.8012695312502	49.19024276733383	-1498.207763671875	471.1138610839845	61.8786430358885	-1503.535278320313	481.4436950683595	203.2667846679686	-1529.81982421875	429.6926879882814	61.149028778076	-1482.011596679688	377.8604736328126	115.9242019653319	-1706.04541015625	107.3686141967774	91.96011352539043	-1680.108520507813	114.5561981201172	186.8122100830076	-1764.685668945313	89.17528533935548	142.1141052246092	-1579.611694335938	18.71292495727539	173.0144958496092	-1560.671997070313	31.84461021423341	117.111358642578	-1621.207763671875	22.82391357421875	66.39405822753888	-1318.005126953125	841.0206298828127	418.4458618164062	-1125.170288085938	464.3294067382814	369.4922180175781	-1132.627807617188	467.497528076172	244.3198089599609	-1131.733276367188	415.0498046875001	369.7247924804687	-1062.951171875	422.4730834960939	320.5106811523437	-1018.599914550781	68.30308532714845	347.8698425292968	-983.9561157226565	105.5836334228516	264.7688598632812	-1029.388427734375	20.09727478027344	296.4510192871093	-852.8876953125002	88.48648071289064	280.5129089355468	-854.6955566406252	110.7131958007813	330.3811035156249	-896.7651367187502	64.73400115966798	377.1273498535156	-1408.475830078125	1466.040405273438	223.8876190185546	-1470.262084960938	1176.60302734375	232.0743713378905	-1218.079711914063	1206.59228515625	228.281768798828	-1271.708862304688	1375.4833984375	230.3336334228515	-1467.131958007813	1253.635498046875	103.6403198242186	-1444.152465820313	1399.311157226563	127.92618560791	-1364.3828125	1396.409545898438	35.26170349121077	-1315.3447265625	1402.613403320313	33.57815551757797	-1235.732666015625	1119.926513671875	-81.74400329589861	-1269.645874023438	1074.71728515625	-2.47434830665604	-1249.92236328125	1057.167114257813	-58.47017288208025	-989.1254882812502	1099.029052734375	28.96375465393055	-990.0700683593752	1045.2666015625	-26.90160179138196	-903.8540039062502	1106.05419921875	40.85755157470692	-917.912780761719	1012.673034667969	-6.72134923934948	-1488.974609375	1249.554565429688	342.0570373535155	-1447.638305664063	1396.844848632813	320.3118591308593	-1384.743041992188	1383.4638671875	421.6713562011718	-1333.12255859375	1377.437255859375	436.9257202148437	-1417.756713867188	1084.68310546875	507.9640197753906	-1438.807006835938	1085.808471679688	471.0591125488281	-1470.862670898438	1071.30517578125	483.0862426757812	-1378.947998046875	813.1067504882815	468.7647399902343	-1434.497314453125	821.929138183594	525.1609497070311	-1380.451293945313	720.0104370117189	472.5098876953124	-1457.816040039063	759.5063476562501	533.1207275390624	
